# xmcd
#
# Track frame offsets:
#	150
#	14865
#	39358
#	53338
#	70196
#	85248
#	107975
#	125181
#	143243
#	157507
#	173566
#
# Disc length: 2545 seconds
#
# Revision: 0
# Processed by: cddbd v1.5.1PL0 Copyright (c) Steve Scherf et al.
# Submitted via: audiograbber 1.83.01
#
DISCID=8b09ef0b
DTITLE=Charlie Christopherson - Good and Plenty
DYEAR=2004
DGENRE=Blues
TTITLE0=Here We Come
TTITLE1=Going Downtown
TTITLE2=I Ain't Gonna Worry
TTITLE3=Remember
TTITLE4=Flippin' Out
TTITLE5=Think About You
TTITLE6=Electric Ladyland
TTITLE7=Lonely World
TTITLE8=Forum Jam
TTITLE9=Angel
TTITLE10=Fly Away
EXTD=http://www.charliechristopherson.com/\nWinner of the Regional Jimi Hendrix
EXTD=Fender Electric Guitar Award\n
EXTT0=
EXTT1=
EXTT2=
EXTT3=
EXTT4=
EXTT5=
EXTT6=
EXTT7=
EXTT8=
EXTT9=
EXTT10=
PLAYORDER=
